<svg width="24" height="24" viewBox="0 0 24 24" fill="none" xmlns="http://www.w3.org/2000/svg">
<g id="ic_m_car_arrived">
<g id="Union">
<path d="M10.2929 3.29291L6 7.5858L3.70711 5.29291C3.31661 4.90236 2.68346 4.90241 2.29291 5.29291C1.90236 5.68341 1.90236 6.31656 2.29291 6.70711L5.2929 9.7071C5.48815 9.90235 5.74405 10 6 10C6.25595 10 6.51185 9.90235 6.7071 9.7071L11.7071 4.70711C12.0976 4.31661 12.0976 3.68346 11.7071 3.29291C11.3166 2.90236 10.6834 2.90236 10.2929 3.29291Z" fill="#005BFF"/>
<path d="M2 19C1.44772 19 1 18.5523 1 18V10.1259H1.00785C1.00267 10.0847 1 10.0426 1 10C1 9.44772 1.44772 9 2 9C2.55228 9 3 9.44772 3 10C3 10.0426 2.99733 10.0847 2.99215 10.1259H3V17H4.17071C4.58254 15.8348 5.69378 15 7 15C8.30622 15 9.41746 15.8348 9.82929 17H15.1707C15.5825 15.8348 16.6938 15 18 15C19.3062 15 20.4175 15.8348 20.8293 17H21V14.4031C21 13.7219 20.7682 13.061 20.3426 12.529L18.4201 10.1259C17.8508 9.41427 16.9889 9 16.0775 9H14V11H16C16.5523 11 17 11.4477 17 12C17 12.5523 16.5523 13 16 13H14V14C14 14.5523 13.5523 15 13 15C12.4477 15 12 14.5523 12 14V8C12 7.44772 12.4477 7 13 7H16.0775C17.5964 7 19.033 7.69045 19.9818 8.87652L21.9043 11.2796C22.6136 12.1662 23 13.2678 23 14.4031V18C23 18.5523 22.5523 19 22 19H20.8293C20.4175 20.1652 19.3062 21 18 21C16.6938 21 15.5825 20.1652 15.1707 19H9.82929C9.41746 20.1652 8.30622 21 7 21C5.69378 21 4.58254 20.1652 4.17071 19H2ZM7 17C6.44772 17 6 17.4477 6 18C6 18.5523 6.44772 19 7 19C7.55228 19 8 18.5523 8 18C8 17.4477 7.55228 17 7 17ZM17 18C17 18.5523 17.4477 19 18 19C18.5523 19 19 18.5523 19 18C19 17.4477 18.5523 17 18 17C17.4477 17 17 17.4477 17 18Z" fill="#005BFF"/>
</g>
</g>
</svg>
