<svg width="24" height="24" viewBox="0 0 24 24" fill="none" xmlns="http://www.w3.org/2000/svg">
<g id="ic_m_desktop">
<g id="Union">
<path d="M11 20V21L6 21C5.44771 21 5 21.4477 5 22C5 22.5523 5.44771 23 6 23H18C18.5523 23 19 22.5523 19 22C19 21.4477 18.5523 21 18 21L13 21V20C13 18.3431 11.6569 17 10 17H4C3.44772 17 3 16.5523 3 16L3 4C3 3.44772 3.44772 3 4 3L20 3C20.5523 3 21 3.44772 21 4L21 16C21 16.5523 20.5523 17 20 17H16C15.4477 17 15 17.4477 15 18C15 18.5523 15.4477 19 16 19H20C21.6569 19 23 17.6569 23 16L23 4C23 2.34315 21.6569 1 20 1H4C2.34315 1 1 2.34315 1 4V16C1 17.6569 2.34315 19 4 19H10C10.5523 19 11 19.4477 11 20Z" fill="#005BFF"/>
<path d="M12 7.00001C12.5523 7.00001 13 6.55229 13 6.00001C13 5.44772 12.5523 5.00001 12 5.00001C11.4477 5.00001 11 5.44772 11 6.00001C11 6.55229 11.4477 7.00001 12 7.00001Z" fill="#005BFF"/>
</g>
</g>
</svg>
