<svg width="24" height="24" viewBox="0 0 24 24" fill="none" xmlns="http://www.w3.org/2000/svg">
<g id="ic_m_recommendation">
<g id="Union">
<path d="M8 2C4.13401 2 1 5.13401 1 9V13C1 15.973 3.16229 18.441 6 18.917V22C6 22.4045 6.24364 22.7691 6.61732 22.9239C6.99099 23.0787 7.42111 22.9931 7.70711 22.7071L11.7071 18.7071C12.0976 18.3166 12.0976 17.6834 11.7071 17.2929C11.3166 16.9024 10.6834 16.9024 10.2929 17.2929L8 19.5858V18C8 17.4477 7.55228 17 7 17C4.79086 17 3 15.2091 3 13V9C3 6.23858 5.23858 4 8 4H16C18.7614 4 21 6.23858 21 9V12C21 14.7614 18.7614 17 16 17H15C14.4477 17 14 17.4477 14 18C14 18.5523 14.4477 19 15 19H16.5C16.6035 19 16.7033 18.9843 16.7972 18.9551C20.2878 18.5594 23 15.5964 23 12V9C23 5.13401 19.866 2 16 2H8Z" fill="#005BFF"/>
<path d="M15.2929 7.29291L11 11.5858L8.70711 9.29291C8.31661 8.90236 7.68346 8.90241 7.29291 9.29291C6.90236 9.68341 6.90236 10.3166 7.29291 10.7071L10.2929 13.7071C10.4882 13.9023 10.7441 14 11 14C11.256 14 11.5119 13.9023 11.7071 13.7071L16.7071 8.70711C17.0976 8.31661 17.0976 7.68346 16.7071 7.29291C16.3166 6.90236 15.6834 6.90236 15.2929 7.29291Z" fill="#005BFF"/>
</g>
</g>
</svg>
