<svg width="24" height="24" viewBox="0 0 24 24" fill="none" xmlns="http://www.w3.org/2000/svg">
<g id="ic_m_circle_userpic">
<g id="Union">
<path d="M7.00001 10C7.00001 7.23858 9.23858 5 12 5C14.7614 5 17 7.23858 17 10C17 12.7614 14.7614 15 12 15C9.23858 15 7.00001 12.7614 7.00001 10ZM12 7C10.3432 7 9.00001 8.34315 9.00001 10C9.00001 11.6569 10.3432 13 12 13C13.6569 13 15 11.6569 15 10C15 8.34315 13.6569 7 12 7Z" fill="#005BFF"/>
<path d="M12 1C5.92487 1 1 5.92487 1 12C1 18.0751 5.92487 23 12 23C18.0751 23 23 18.0751 23 12C23 5.92487 18.0751 1 12 1ZM3 12C3 7.02944 7.02944 3 12 3C16.9706 3 21 7.02944 21 12C21 14.1215 20.266 16.0715 19.038 17.61C18.1079 16.6019 16.7838 16 15.3624 16H8.63759C7.21624 16 5.89207 16.6019 4.96199 17.61C3.73404 16.0716 3 14.1215 3 12ZM6.37696 19.0276C6.93713 18.3858 7.75622 18 8.63759 18H15.3624C16.2438 18 17.0629 18.3858 17.623 19.0276C17.4322 19.1805 17.2351 19.3257 17.032 19.4629C15.5956 20.4334 13.864 21 12 21C9.87252 21 7.91746 20.2618 6.37696 19.0276Z" fill="#005BFF"/>
</g>
</g>
</svg>
