<svg width="32" height="32" viewBox="0 0 32 32" fill="none" xmlns="http://www.w3.org/2000/svg">
<g id="ic_l_document">
<path id="Union" d="M6 3C5.44772 3 5 3.44772 5 4V28C5 28.5523 5.44772 29 6 29H26C26.5523 29 27 28.5523 27 28V13C27 12.4477 27.4477 12 28 12C28.5523 12 29 12.4477 29 13V28C29 29.6569 27.6569 31 26 31H6C4.34315 31 3 29.6569 3 28V4C3 2.34315 4.34315 1 6 1H21C21.2652 1 21.5196 1.10536 21.7071 1.29289L28.7071 8.29289C28.9931 8.57889 29.0787 9.00901 28.9239 9.38268C28.7691 9.75636 28.4045 10 28 10H21C20.4477 10 20 9.55228 20 9V3H6ZM22 4.41421V8H25.5858L22 4.41421ZM9 13C9 12.4477 9.44772 12 10 12H22C22.5523 12 23 12.4477 23 13C23 13.5523 22.5523 14 22 14H10C9.44772 14 9 13.5523 9 13ZM9 17C9 16.4477 9.44772 16 10 16H22C22.5523 16 23 16.4477 23 17C23 17.5523 22.5523 18 22 18H10C9.44772 18 9 17.5523 9 17ZM9 21C9 20.4477 9.44772 20 10 20H20C20.5523 20 21 20.4477 21 21C21 21.5523 20.5523 22 20 22H10C9.44772 22 9 21.5523 9 21Z" fill="#005BFF"/>
</g>
</svg>
