<svg width="32" height="32" viewBox="0 0 32 32" fill="none" xmlns="http://www.w3.org/2000/svg">
<g id="ic_l_box">
<path id="Union" d="M15.5259 1.11953C15.8219 0.960157 16.1781 0.960157 16.4741 1.11953L29.4741 8.11953C29.798 8.29394 30 8.63212 30 9V23C30 23.3679 29.798 23.7061 29.4741 23.8805L16.4741 30.8805C16.1642 31.0473 15.7894 31.039 15.4872 30.8585C15.185 30.678 15 30.352 15 30V16.5973L11 14.4434V18C11 18.5523 10.5523 19 10 19C9.44772 19 9 18.5523 9 18V13.3665L4 10.6742V22.4027L12.4741 26.9657C12.9604 27.2275 13.1423 27.834 12.8805 28.3203C12.6186 28.8065 12.0122 28.9885 11.5259 28.7266L2.5259 23.8805C2.20199 23.7061 2 23.3679 2 23V9C2 8.63212 2.20199 8.29394 2.5259 8.11953L15.5259 1.11953ZM5.10926 9L9.28144 11.2466L9.53223 11.1161L20.1765 5.38463L16 3.13576L5.10926 9ZM11.395 12.3846L16 14.8642L26.8907 9L22.2857 6.52039L11.395 12.3846ZM17 16.5973V28.3258L28 22.4027V10.6742L17 16.5973Z" fill="#005BFF"/>
</g>
</svg>
