<svg width="32" height="32" viewBox="0 0 32 32" fill="none" xmlns="http://www.w3.org/2000/svg">
<g id="ic_l_location_pin">
<g id="Union">
<path d="M13.6774 28.5783C14.2065 28.9792 14.6486 29.2928 14.9604 29.5073C15.1227 29.6191 15.297 29.7364 15.4626 29.8433C15.7901 30.0518 16.2093 30.0521 16.5369 29.8437C16.7054 29.7357 16.8748 29.6208 17.0396 29.5073C17.3514 29.2928 17.7935 28.9792 18.3226 28.5783C19.3792 27.7779 20.7912 26.623 22.2071 25.2071C24.9888 22.4254 28 18.4249 28 14C28 7.37258 22.6274 2 16 2C9.37258 2 4 7.37258 4 14C4 18.4249 7.01123 22.4254 9.79289 25.2071C11.2088 26.623 12.6208 27.7779 13.6774 28.5783ZM16 4C21.5228 4 26 8.47715 26 14C26 17.5751 23.5112 21.0746 20.7929 23.7929C19.4588 25.127 18.1208 26.2221 17.1149 26.9842C16.6649 27.3251 16.2831 27.598 16 27.7946C15.7169 27.598 15.3351 27.3251 14.8851 26.9842C13.8792 26.2221 12.5412 25.127 11.2071 23.7929C8.48877 21.0746 6 17.5751 6 14C6 8.47715 10.4772 4 16 4Z" fill="#005BFF"/>
<path d="M16 8C12.6863 8 10 10.6863 10 14C10 17.3137 12.6863 20 16 20C19.3137 20 22 17.3137 22 14C22 10.6863 19.3137 8 16 8ZM16 10C18.2091 10 20 11.7909 20 14C20 16.2091 18.2091 18 16 18C13.7909 18 12 16.2091 12 14C12 11.7909 13.7909 10 16 10Z" fill="#005BFF"/>
</g>
</g>
</svg>
